<?xml version="1.0" encoding="utf-8"?>
<!-- Generator: Adobe Illustrator 23.0.3, SVG Export Plug-In . SVG Version: 6.00 Build 0)  -->
<svg version="1.1" id="Layer_1" xmlns="http://www.w3.org/2000/svg" xmlns:xlink="http://www.w3.org/1999/xlink" x="0px" y="0px"
	 viewBox="0 0 63 15" style="enable-background:new 0 0 63 15;" xml:space="preserve">
<style type="text/css">
	.st0{fill:#9E2062;}
	.st1{fill:#B62270;}
	.st2{fill:#FCED19;}
	.st3{fill:#F9A61E;}
	.st4{fill:#F05927;}
	.st5{fill:#BBD334;}
	.st6{fill:#89C544;}
	.st7{fill:#71BE46;}
	.st8{fill:#38B24B;}
	.st9{fill:#67C7CC;}
	.st10{fill:#2087C8;}
	.st11{fill:#61C19B;}
	.st12{fill:#1B61AB;}
	.st13{fill:#9765A9;}
	.st14{fill:#902A8B;}
	.st15{fill:#0A994A;}
	.st16{fill:#00B3AC;}
	.st17{fill:#000333;}
</style>
<g>
	<g>
		<g>
			<polygon id="XMLID_63_" class="st0" points="6.81,4.72 3.84,4.71 5.32,6.25 			"/>
			<polygon id="XMLID_62_" class="st1" points="5.32,6.25 3.84,4.71 3.83,7.77 			"/>
			<g id="XMLID_59_">
				<polygon id="XMLID_61_" class="st2" points="9.8,1.67 6.82,1.66 8.31,3.19 				"/>
				<polygon id="XMLID_60_" class="st3" points="8.31,3.19 6.82,1.66 6.81,4.72 				"/>
			</g>
			<polygon id="XMLID_57_" class="st4" points="5.33,3.18 6.81,4.72 6.82,1.66 			"/>
			<polygon id="XMLID_56_" class="st1" points="3.84,4.71 6.81,4.72 5.33,3.18 			"/>
		</g>
		<g>
			<g id="XMLID_42_">
				<polygon id="XMLID_44_" class="st5" points="5.35,9.19 6.89,10.68 3.83,10.69 				"/>
			</g>
			<polygon id="XMLID_39_" class="st6" points="6.89,10.68 6.9,13.66 5.36,12.17 			"/>
			<polygon id="XMLID_38_" class="st7" points="5.36,12.17 3.83,10.69 6.89,10.68 			"/>
			<polygon id="XMLID_37_" class="st8" points="6.9,13.66 6.89,10.68 8.43,12.16 			"/>
			<polygon id="XMLID_36_" class="st6" points="8.43,12.16 9.97,13.65 6.9,13.66 			"/>
			<polygon id="XMLID_35_" class="st8" points="3.84,10.68 3.83,7.7 5.37,9.19 			"/>
			<polygon id="XMLID_34_" class="st6" points="5.37,9.19 6.91,10.67 3.84,10.68 			"/>
		</g>
	</g>
	<g>
		<polygon id="XMLID_54_" class="st9" points="0.78,7.67 0.77,10.65 2.3,9.16 		"/>
		<polygon id="XMLID_53_" class="st10" points="2.3,9.16 3.84,7.68 0.78,7.67 		"/>
		<polygon id="XMLID_52_" class="st7" points="3.83,10.66 3.84,7.68 2.3,9.16 		"/>
		<polygon id="XMLID_51_" class="st11" points="2.3,9.16 0.77,10.65 3.83,10.66 		"/>
		<polygon id="XMLID_50_" class="st0" points="3.84,7.68 3.85,4.7 2.31,6.18 		"/>
		<polygon id="XMLID_49_" class="st12" points="2.31,6.18 0.78,7.67 3.84,7.68 		"/>
		<polygon id="XMLID_48_" class="st13" points="0.79,4.69 0.78,7.67 2.31,6.18 		"/>
		<polygon id="XMLID_47_" class="st14" points="2.31,6.18 3.85,4.7 0.79,4.69 		"/>
		<polygon id="XMLID_46_" class="st1" points="2.33,3.21 0.79,4.69 3.85,4.7 		"/>
		<polygon id="XMLID_45_" class="st0" points="0.8,1.71 0.79,4.69 2.33,3.21 		"/>
		<polygon id="XMLID_33_" class="st15" points="3.82,13.64 3.83,10.66 2.29,12.14 		"/>
		<polygon id="XMLID_32_" class="st16" points="2.29,12.14 3.83,10.66 0.77,10.65 		"/>
	</g>
</g>
<g>
	<path class="st17" d="M16.62,3.95h0.65v4.37c0.67-0.65,3.07-2.9,4.57-4.37h0.86l-3.77,3.57l3.98,4.82h-0.8l-3.65-4.4l-1.2,1.06
		v3.35h-0.65V3.95z"/>
	<path class="st17" d="M28.83,9.33c0,1.67-0.92,3.15-2.71,3.15c-1.62,0-2.63-1.33-2.63-3.14c0-1.71,0.95-3.14,2.69-3.14
		C27.77,6.2,28.83,7.45,28.83,9.33z M24.13,9.34c0,1.43,0.77,2.58,2.04,2.58c1.3,0,2.03-1.07,2.03-2.58c0-1.41-0.72-2.58-2.05-2.58
		C24.78,6.76,24.13,7.9,24.13,9.34z"/>
	<path class="st17" d="M35.02,3.5v7.11c0,0.58,0,1.13,0.01,1.73h-0.58c-0.02-0.14-0.04-0.71-0.04-1.01
		c-0.3,0.73-0.97,1.15-2.01,1.15c-1.56,0-2.49-1.27-2.49-3.07c0-1.85,1.02-3.21,2.65-3.21c1.2,0,1.68,0.52,1.86,0.9V3.5H35.02z
		 M30.55,9.39c0,1.64,0.85,2.53,1.88,2.53c1.58,0,2.01-1.09,2.01-2.72c0-1.55-0.37-2.44-1.91-2.44C31.35,6.76,30.55,7.71,30.55,9.39
		z"/>
	<path class="st17" d="M41.62,3.5v7.11c0,0.58,0,1.13,0.01,1.73h-0.58c-0.02-0.14-0.04-0.71-0.04-1.01
		c-0.3,0.73-0.97,1.15-2.01,1.15c-1.56,0-2.49-1.27-2.49-3.07c0-1.85,1.02-3.21,2.65-3.21c1.2,0,1.68,0.52,1.86,0.9V3.5H41.62z
		 M37.15,9.39c0,1.64,0.85,2.53,1.88,2.53c1.58,0,2.01-1.09,2.01-2.72c0-1.55-0.37-2.44-1.91-2.44C37.95,6.76,37.15,7.71,37.15,9.39
		z"/>
	<path class="st17" d="M43.72,9.41c0.01,1.55,0.79,2.51,1.94,2.51c1.13,0,1.51-0.64,1.73-1.13h0.61c-0.25,0.79-0.89,1.69-2.36,1.69
		c-1.82,0-2.53-1.57-2.53-3.09c0-1.72,0.85-3.19,2.6-3.19c1.85,0,2.43,1.6,2.43,2.72c0,0.17,0,0.33-0.01,0.49H43.72z M47.53,8.89
		c-0.01-1.19-0.66-2.12-1.83-2.12c-1.24,0-1.8,0.86-1.93,2.12H47.53z"/>
	<path class="st17" d="M53.73,11.2c0,0.53,0.05,0.95,0.08,1.14h-0.58c-0.05-0.14-0.08-0.41-0.11-0.92c-0.2,0.44-0.73,1.07-1.97,1.07
		c-1.39,0-1.99-0.9-1.99-1.8c0-1.32,1.02-1.92,2.82-1.92c0.5,0,0.9,0,1.14,0V8.16c0-0.6-0.18-1.4-1.55-1.4
		c-1.21,0-1.39,0.64-1.52,1.13h-0.6c0.07-0.66,0.48-1.68,2.13-1.68c1.37,0,2.13,0.58,2.13,1.9V11.2z M53.14,9.28
		c-0.23,0-0.78,0-1.18,0c-1.33,0-2.16,0.35-2.16,1.38c0,0.76,0.54,1.27,1.38,1.27c1.72,0,1.95-1.14,1.95-2.44V9.28z"/>
</g>
<g>
</g>
<g>
</g>
<g>
</g>
<g>
</g>
<g>
</g>
<g>
</g>
<g>
</g>
<g>
</g>
<g>
</g>
<g>
</g>
<g>
</g>
<g>
</g>
<g>
</g>
<g>
</g>
<g>
</g>
</svg>
